<svg viewBox="0 0 24 24" fill="none" xmlns="http://www.w3.org/2000/svg">
  <path d="M22 16.92V19.92C22 20.4704 21.7893 20.9996 21.4142 21.3747C21.0391 21.7498 20.5099 21.9605 19.96 21.96C18.2 22.09 16.48 21.89 14.87 21.37C13.33 20.88 11.89 20.08 10.59 19.02C9.32065 17.9805 8.21002 16.7705 7.3 15.42C6.18 14.11 5.38 12.67 4.89 11.13C4.37 9.52 4.17 7.8 4.3 6.04C4.30954 5.49056 4.52024 4.96179 4.89523 4.58676C5.27022 4.21174 5.79897 4.001 6.35 4H9.35C10.3 3.99 11.11 4.67 11.28 5.6C11.38 6.12 11.53 6.63 11.74 7.11C12.0299 7.8586 11.9602 8.70108 11.56 9.39L10.59 11.32C11.4279 12.5804 12.4745 13.6969 13.69 14.6L15.62 13.63C16.3089 13.2298 17.1514 13.1601 17.9 13.45C18.38 13.66 18.89 13.81 19.41 13.91C20.35 14.08 21.03 14.9 21 15.86L22 16.92Z" stroke="currentColor" strokeWidth="2" strokeLinecap="round" strokeLinejoin="round"/>
</svg>